<svg width="210" height="41" viewBox="0 0 210 41" fill="none" xmlns="http://www.w3.org/2000/svg">
<path d="M24.3562 0.0347671C24.5316 0.0182113 24.6355 0 24.7394 0C26.6282 0 28.5169 0 30.4056 0.00993346C32.5817 0.0215225 34.7563 0.0463562 36.9324 0.0562896C40.3119 0.0728454 43.6931 0.0844344 47.0726 0.0943679C47.4559 0.0943679 47.8375 0.0695342 48.2208 0.0579452C49.5233 0.0165558 50.8176 0.102646 52.1103 0.263237C52.8719 0.357605 53.6206 0.518196 54.3725 0.65892C54.8012 0.738387 55.2235 0.867522 55.6425 0.993346C56.7565 1.32943 57.8495 1.72346 58.9083 2.21847C59.9899 2.72508 61.0211 3.31612 62.0037 3.99822C63.147 4.79124 64.1814 5.71174 65.1087 6.74979C66.2033 7.97657 67.1274 9.32587 67.8371 10.8159C68.1213 11.4119 68.3973 12.0145 68.6377 12.6304C68.9381 13.4002 69.185 14.1899 69.388 14.9946C69.6413 15.9995 69.8459 17.0144 69.9759 18.0425C70.1188 19.1666 70.2487 20.2941 70.1707 21.4298C70.1058 22.3536 70.0051 23.2741 69.8167 24.1814C69.6705 24.8833 69.5146 25.5853 69.3279 26.2773C69.1086 27.0902 68.8261 27.8816 68.5078 28.663C68.118 29.6232 67.6665 30.552 67.1387 31.4411C65.8542 33.6032 64.209 35.4293 62.1514 36.8631C60.9546 37.6975 59.6716 38.3647 58.3074 38.8812C57.2405 39.2852 56.1459 39.5915 55.0351 39.8166C54.2198 39.9822 53.3997 40.1477 52.5617 40.1924C51.8927 40.2289 51.2268 40.3116 50.5577 40.3597C50.0803 40.3928 49.6012 40.4193 49.1237 40.4193C42.8291 40.4292 36.5329 40.4342 30.2383 40.4408C24.6144 40.4474 18.9889 40.454 13.365 40.4606C12.9411 40.4606 12.5172 40.464 12.0918 40.464C11.9976 40.464 11.905 40.4474 11.7832 40.4358C11.8043 40.353 11.8092 40.2868 11.8368 40.2305C12.4068 39.0981 12.9785 37.9657 13.5485 36.8333C14.013 35.9111 14.4742 34.9857 14.9386 34.0635C15.0621 33.8185 15.1952 33.5784 15.3333 33.3152C15.5119 33.3086 15.6873 33.297 15.8627 33.297C17.641 33.297 19.4209 33.3003 21.1991 33.3036C24.0184 33.3086 26.8376 33.3119 29.6569 33.3168C35.3084 33.3251 40.9615 33.335 46.613 33.34C47.4202 33.34 48.2289 33.3566 49.0344 33.3119C50.1258 33.2506 51.2155 33.1513 52.297 32.9576C53.0246 32.8268 53.744 32.6579 54.4602 32.4775C55.3031 32.2655 56.0793 31.8864 56.815 31.4245C57.7488 30.8368 58.5819 30.1265 59.2997 29.2822C60.1068 28.3319 60.7629 27.2905 61.2339 26.1267C61.5977 25.2277 61.89 24.3055 62.0556 23.3536C62.2424 22.2791 62.3561 21.1947 62.3252 20.097C62.3009 19.2262 62.2229 18.3603 62.1385 17.4945C62.0719 16.819 61.9631 16.1535 61.7925 15.4962C61.7682 15.4035 61.7519 15.3058 61.7178 15.2164C61.5181 14.6734 61.3362 14.1221 61.1056 13.5923C60.6622 12.5758 60.0825 11.6437 59.3419 10.8142C58.4877 9.85731 57.4727 9.12885 56.3213 8.57589C55.2105 8.04114 54.0363 7.74479 52.8362 7.51797C51.9706 7.35407 51.1018 7.29778 50.2248 7.29447C45.7231 7.27957 41.2198 7.26467 36.718 7.25143C36.5426 7.25143 36.364 7.22328 36.1659 7.30275C36.1854 7.39546 36.187 7.49314 36.2243 7.57426C36.338 7.82426 36.4615 8.07094 36.5881 8.31596C37.2929 9.67354 38.0026 11.0278 38.7074 12.3854C39.068 13.0824 39.4171 13.786 39.776 14.4846C40.1041 15.122 40.4402 15.7528 40.7699 16.3886C41.1759 17.1716 41.577 17.9564 41.983 18.7395C42.3695 19.4861 42.7626 20.2295 43.1474 20.9762C43.6022 21.8569 44.052 22.7427 44.5067 23.6234C45.0053 24.5903 45.5104 25.5555 46.0105 26.524C46.3776 27.2342 46.7397 27.9461 47.1051 28.6547C47.3455 29.1199 47.5907 29.5819 47.8294 30.0471C47.896 30.1779 47.9869 30.302 48.0113 30.4725C47.948 30.4941 47.8993 30.5206 47.8489 30.5239C47.7531 30.5322 47.6573 30.5305 47.5615 30.5305C45.2343 30.5305 42.9087 30.5305 40.5815 30.5305C40.4467 30.5305 40.3119 30.5206 40.1804 30.5156C39.9108 30.1414 39.7387 29.7342 39.5341 29.3451C39.0095 28.3451 38.4898 27.3402 37.9718 26.3353C37.3904 25.2095 36.8155 24.0804 36.2325 22.9546C35.44 21.4248 34.6409 19.9 33.8468 18.3703C33.0592 16.8538 32.278 15.3356 31.4904 13.8208C30.8749 12.6337 30.2513 11.4516 29.6358 10.2662C29.1859 9.39871 28.7458 8.52457 28.296 7.65704C27.5652 6.2498 26.8295 4.84753 26.0971 3.44029C25.7544 2.77971 25.4183 2.11583 25.0789 1.45525C24.9278 1.16221 24.7687 0.870834 24.6176 0.577796C24.5364 0.420517 24.4634 0.256614 24.3546 0.0298004L24.3562 0.0347671Z" fill="#1027C3"/>
<path d="M0.909361 40.4758C0.909361 40.4361 0.894745 40.3881 0.910985 40.3566C7.73664 26.9828 14.5623 13.6091 21.3928 0.238655C21.4026 0.220444 21.4399 0.218788 21.4935 0.197266C26.5653 10.2367 31.6337 20.2811 36.6811 30.2973C36.6243 30.4298 36.5496 30.4231 36.4846 30.4264C36.3758 30.4331 36.2654 30.4314 36.1566 30.4314C33.8846 30.4314 31.6126 30.4314 29.3423 30.4314C29.1929 30.4314 29.0435 30.4314 28.8794 30.4314C28.8031 30.3188 28.7235 30.2245 28.6683 30.1169C27.8109 28.4497 26.9566 26.7825 26.1024 25.1137C25.5438 24.0227 24.9932 22.9267 24.4346 21.8373C23.9311 20.8572 23.4196 19.8804 22.9161 18.9003C22.463 18.0179 22.0164 17.1338 21.5666 16.2497C21.5422 16.2017 21.5098 16.1587 21.4903 16.1272C21.3603 16.0941 21.3246 16.1752 21.2889 16.2481C20.7221 17.3673 20.1586 18.4864 19.5918 19.6056C19.2183 20.3423 18.835 21.0741 18.4599 21.8108C18.0994 22.5227 17.747 23.2396 17.3864 23.9515C16.818 25.069 16.2448 26.1849 15.6764 27.3024C15.0771 28.4811 14.4811 29.6616 13.8818 30.8403C13.1624 32.2509 12.4381 33.6598 11.7187 35.0703C11.3809 35.7326 11.0528 36.3998 10.715 37.0637C10.3903 37.7027 10.0638 38.3418 9.7374 38.9808C9.53278 39.3815 9.31354 40.1629 8.94165 40.4394C8.62009 40.6877 7.41996 40.5023 7.01883 40.5039C6.15324 40.5106 5.28928 40.5122 4.42369 40.5106C4.2077 40.5106 0.915857 40.5155 0.914233 40.4725L0.909361 40.4758Z" fill="#EF1C23"/>
<path d="M102.818 10.8622C102.757 10.9549 102.72 10.9864 102.715 11.0228C102.704 11.1238 102.702 11.2264 102.701 11.3291C102.694 12.7628 102.684 14.1965 102.681 15.6286C102.678 17.1501 102.602 18.6683 102.533 20.1881C102.52 20.4795 102.506 20.7708 102.491 21.0804C102.395 21.1003 102.316 21.1301 102.235 21.1301C101.047 21.1334 99.8586 21.1318 98.6715 21.1301C98.6147 21.1301 98.5594 21.1152 98.514 21.1102C98.4019 21.0043 98.4425 20.8801 98.449 20.7692C98.5156 19.5275 98.587 18.2875 98.6585 17.0458C98.7023 16.2875 98.7494 15.5276 98.7949 14.7694C98.8956 13.0625 98.9979 11.3539 99.097 9.64702C99.1749 8.28945 99.2464 6.93188 99.3243 5.57265C99.3779 4.6538 99.4396 3.7333 99.5014 2.81446C99.5062 2.73002 99.5387 2.64724 99.5582 2.56115C99.6264 2.5446 99.6816 2.51976 99.7368 2.51976C100.867 2.51645 101.996 2.5148 103.126 2.51645C103.196 2.51645 103.267 2.53963 103.358 2.55453C103.509 2.93035 103.662 3.30947 103.811 3.68695C104.096 4.40547 104.38 5.12564 104.664 5.84582C105.072 6.87724 105.479 7.90867 105.889 8.94009C106.156 9.61888 106.424 10.2977 106.696 10.9748C107.217 12.2744 107.743 13.5741 108.188 14.9035C108.331 15.3323 108.458 15.7677 108.596 16.1981C108.622 16.2793 108.662 16.3554 108.713 16.4746C108.779 16.3935 108.839 16.3505 108.859 16.2942C108.994 15.8935 109.109 15.4846 109.253 15.0872C109.556 14.2495 109.864 13.4151 110.182 12.584C110.558 11.6023 110.944 10.6255 111.331 9.64868C111.615 8.9285 111.909 8.21329 112.193 7.49477C112.607 6.4501 113.016 5.40378 113.43 4.36077C113.667 3.76476 113.909 3.17206 114.156 2.56115C114.26 2.5446 114.356 2.51811 114.453 2.51811C115.496 2.5148 116.539 2.5148 117.583 2.51811C117.682 2.51811 117.779 2.54294 117.862 2.55453C117.969 2.70188 117.953 2.85253 117.961 2.99657C118.026 4.19355 118.086 5.39053 118.155 6.58752C118.27 8.61725 118.39 10.6453 118.509 12.6751C118.593 14.1353 118.674 15.5939 118.764 17.0541C118.835 18.2213 118.916 19.3884 118.991 20.5556C119.002 20.7278 119.027 20.9033 118.976 21.0953C118.905 21.1086 118.837 21.1318 118.768 21.1318C117.537 21.1334 116.306 21.1318 115.075 21.1318C115.019 21.1318 114.963 21.1169 114.882 21.1069C114.861 21.0225 114.833 20.943 114.822 20.8619C114.808 20.746 114.804 20.6285 114.799 20.5126C114.689 17.8537 114.6 15.1932 114.626 12.531C114.631 12.0923 114.64 11.6536 114.645 11.2149C114.645 11.1188 114.665 11.0096 114.543 10.9251C114.312 11.3274 114.215 11.7728 114.044 12.185C113.867 12.6171 113.711 13.0575 113.541 13.4929C113.375 13.9134 113.203 14.3323 113.032 14.7512C112.855 15.1833 112.68 15.6154 112.501 16.0475C112.328 16.4647 112.154 16.8819 111.979 17.2991C111.803 17.7163 111.626 18.1319 111.452 18.5491C111.272 18.9795 111.097 19.4116 110.915 19.8421C110.739 20.2576 110.559 20.6732 110.377 21.097C109.999 21.1781 109.622 21.1251 109.25 21.1351C108.873 21.145 108.497 21.1417 108.12 21.1351C107.745 21.1285 107.368 21.1649 106.972 21.1069C106.491 19.9828 106.014 18.8537 105.526 17.7295C105.039 16.6054 104.565 15.4747 104.128 14.329C103.695 13.19 103.271 12.0476 102.818 10.8639V10.8622Z" fill="#0C26B7"/>
<path d="M204.713 14.0168C204.783 13.3711 204.666 12.838 204.656 12.3C204.646 11.7586 204.593 11.2189 204.573 10.6791C204.554 10.1378 204.55 9.59806 204.542 9.05668C204.534 8.53021 204.528 8.00374 204.521 7.47726C204.513 6.93589 204.503 6.39452 204.497 5.8548C204.49 5.31342 204.487 4.77205 204.485 4.23068C204.484 3.69096 204.485 3.15124 204.485 2.62973C204.617 2.48239 204.771 2.51715 204.911 2.51715C205.606 2.51384 206.301 2.5155 206.996 2.5155C207.459 2.5155 207.923 2.5155 208.386 2.5155C208.529 2.5155 208.674 2.52543 208.833 2.53205C208.856 2.63139 208.883 2.71251 208.89 2.79529C208.899 2.91118 208.893 3.02873 208.893 3.14627C208.893 8.93914 208.893 14.7303 208.893 20.5232C208.893 20.7103 208.912 20.899 208.875 21.0414C208.831 21.0894 208.823 21.1043 208.812 21.1109C208.8 21.1176 208.784 21.1209 208.77 21.1209C207.668 21.1258 206.569 21.1308 205.468 21.1358C205.353 21.1358 205.237 21.1358 205.099 21.1358C204.481 20.1954 203.863 19.26 203.248 18.3229C202.624 17.3726 202.004 16.4207 201.382 15.4704C200.768 14.5317 200.143 13.5996 199.539 12.6559C198.936 11.7172 198.386 10.7437 197.793 9.80832C197.65 9.86129 197.674 9.94573 197.678 10.0103C197.721 10.7106 197.777 11.4109 197.814 12.1112C197.85 12.8264 197.881 13.5433 197.89 14.2585C197.921 16.4521 197.939 18.6458 197.962 20.8394C197.962 20.9106 197.947 20.9835 197.937 21.0762C197.855 21.096 197.775 21.1308 197.694 21.1308C196.39 21.1341 195.087 21.1341 193.783 21.1308C193.715 21.1308 193.645 21.1126 193.579 21.1027C193.559 21.0398 193.536 21 193.536 20.9603C193.533 14.8909 193.533 8.81994 193.533 2.75059C193.533 2.6943 193.553 2.63967 193.566 2.56682C193.642 2.55027 193.71 2.52709 193.778 2.52212C194.259 2.4857 196.884 2.5155 197.192 2.56185C197.367 2.82012 197.556 3.09495 197.741 3.37309C198.374 4.31677 199.006 5.2621 199.636 6.20743C200.443 7.41932 201.244 8.63782 202.058 9.84639C202.913 11.1162 203.703 12.4258 204.497 13.7337C204.541 13.8049 204.597 13.8678 204.713 14.0184V14.0168Z" fill="#0C26B7"/>
<path d="M146.156 12.5129C146.192 12.5444 146.229 12.5907 146.276 12.6205C147.013 13.0924 147.565 13.7447 148.043 14.4681C148.59 15.2976 149.029 16.1883 149.427 17.0989C149.963 18.329 150.485 19.5657 151.012 20.8007C151.049 20.8901 151.064 20.9878 151.088 21.0855C150.719 21.1501 146.77 21.1534 146.346 21.0888C146.17 20.6964 145.982 20.2875 145.803 19.8736C145.211 18.5094 144.631 17.1386 144.027 15.7794C143.778 15.2198 143.494 14.6734 143.117 14.1867C142.974 14.0029 142.823 13.8241 142.651 13.6702C142.198 13.2629 141.656 13.1718 141.076 13.2496C140.959 13.3821 140.998 13.5361 140.998 13.6768C140.995 14.5691 140.996 15.4615 140.996 16.3538C140.996 17.7727 140.996 19.1915 140.996 20.6103C140.996 20.7676 140.985 20.9249 140.979 21.0938C140.899 21.1103 140.844 21.1318 140.79 21.1318C139.4 21.1335 138.012 21.1318 136.602 21.1318C136.576 21.0342 136.545 20.9564 136.537 20.8752C136.526 20.7593 136.534 20.6418 136.534 20.5242C136.534 14.7314 136.534 8.93852 136.534 3.14566C136.534 2.95858 136.509 2.76653 136.565 2.60263C136.69 2.47846 136.824 2.50495 136.951 2.50329C137.661 2.4917 138.37 2.48011 139.08 2.4768C140.267 2.47018 141.456 2.4768 142.643 2.46521C143.592 2.45694 144.522 2.58773 145.433 2.83772C146.175 3.04135 146.874 3.35591 147.491 3.84265C148.355 4.5231 148.865 5.41711 149.073 6.48495C149.219 7.23493 149.227 7.9965 149.112 8.75641C148.938 9.89048 148.403 10.8159 147.538 11.5494C147.194 11.8424 146.818 12.0891 146.412 12.2894C146.315 12.3374 146.182 12.3556 146.156 12.5179V12.5129ZM141.044 5.42704C140.975 5.8161 140.951 8.3243 140.996 10.0792C141 10.1785 141.019 10.2762 141.029 10.3573C141.076 10.3871 141.1 10.412 141.125 10.4136C141.282 10.4252 141.441 10.4352 141.599 10.4368C142.047 10.4401 142.492 10.4418 142.932 10.316C143.769 10.0776 144.251 9.51963 144.438 8.68025C144.561 8.12894 144.533 7.57598 144.417 7.02964C144.339 6.66872 144.17 6.34589 143.918 6.07272C143.58 5.70518 143.158 5.48499 142.669 5.43532C142.21 5.38896 141.747 5.38896 141.284 5.37737C141.201 5.37572 141.118 5.41049 141.044 5.4287V5.42704Z" fill="#0C26B7"/>
<path d="M83.6596 21.1321C82.25 21.1321 80.8745 21.1321 79.4989 21.1321C79.4454 21.1321 79.3918 21.1105 79.3154 21.0956C79.3349 20.9963 79.3414 20.9102 79.369 20.8324C79.6078 20.19 79.853 19.5493 80.0933 18.907C80.6 17.5544 81.1067 16.2017 81.615 14.8491C81.8765 14.1521 82.1412 13.4568 82.4026 12.7598C82.846 11.586 83.2861 10.4105 83.7311 9.23674C84.129 8.18545 84.5317 7.13747 84.9263 6.08452C85.3015 5.08786 85.6669 4.08624 86.0388 3.08792C86.1054 2.91078 86.1817 2.74025 86.2564 2.5598C86.3587 2.54324 86.4415 2.52006 86.526 2.52006C87.6709 2.51675 88.8142 2.51675 89.9591 2.52006C90.0452 2.52006 90.1296 2.53827 90.2449 2.55152C90.7191 3.76837 91.143 5.01005 91.5993 6.23849C92.0557 7.47024 92.4958 8.70861 92.944 9.94201C93.3971 11.1903 93.8518 12.4386 94.3049 13.6869C94.7531 14.922 95.2062 16.1537 95.6463 17.3921C96.0848 18.6255 96.5525 19.8473 96.9764 21.0973C96.6061 21.147 93.0707 21.1585 92.5185 21.1155C92.2376 20.4119 92.0541 19.6619 91.8218 18.9301C91.5863 18.1951 91.3833 17.4484 91.1462 16.7514C90.9692 16.6156 90.8036 16.6554 90.6493 16.6554C89.4622 16.6521 88.2734 16.6537 87.0863 16.6537C86.6088 16.6537 86.1297 16.6537 85.6523 16.6537C85.5516 16.6537 85.4493 16.6587 85.3486 16.6537C85.1781 16.6488 85.0806 16.7299 85.0303 16.8905C84.8922 17.3375 84.7477 17.7812 84.608 18.2265C84.3401 19.0758 84.0737 19.9251 83.8058 20.7745C83.7717 20.8837 83.7213 20.9897 83.6629 21.1354L83.6596 21.1321ZM90.0549 13.3045C90.0582 13.2383 90.0728 13.1919 90.0614 13.1522C89.4589 11.2466 88.8532 9.34269 88.2458 7.44044C88.2295 7.38746 88.1873 7.34276 88.1548 7.2964C88.1483 7.28812 88.1305 7.28812 88.111 7.2815C88.0866 7.31296 88.0493 7.34276 88.0363 7.38249C87.4192 9.32779 86.8053 11.2748 86.1931 13.2217C86.1866 13.2449 86.2077 13.2763 86.2158 13.3028C86.5487 13.3641 89.6164 13.3707 90.0549 13.3045Z" fill="#0C26B7"/>
<path d="M191.87 21.1337C190.338 21.137 188.878 21.1337 187.395 21.1337C187.355 21.0311 187.314 20.9417 187.285 20.849C186.921 19.6619 186.569 18.4732 186.195 17.2895C185.966 16.5643 186.083 16.6504 185.344 16.6488C183.737 16.6454 182.129 16.6471 180.521 16.6488C180.349 16.6488 180.174 16.6256 179.975 16.7034C179.696 17.407 179.517 18.1603 179.264 18.8888C179.011 19.6189 178.827 20.3705 178.541 21.1188C178.061 21.1503 177.585 21.1304 177.111 21.1337C176.619 21.137 176.127 21.1337 175.633 21.1337C175.139 21.1337 174.68 21.1337 174.173 21.1337C174.191 21.0294 174.191 20.9582 174.215 20.897C174.465 20.2265 174.719 19.5576 174.97 18.8888C175.381 17.7961 175.789 16.7017 176.201 15.6107C176.593 14.5727 176.987 13.5363 177.377 12.4982C177.885 11.1456 178.39 9.79301 178.897 8.4404C179.256 7.48348 179.617 6.52821 179.975 5.57295C180.294 4.72695 180.612 3.87929 180.93 3.03329C180.987 2.88263 181.052 2.73694 181.12 2.56807C181.213 2.55152 181.31 2.52006 181.406 2.52006C182.549 2.51675 183.694 2.51675 184.838 2.52006C184.924 2.52006 185.008 2.53827 185.122 2.54986C186.252 5.62924 187.361 8.71523 188.485 11.7979C189.609 14.8806 190.72 17.9666 191.868 21.1354L191.87 21.1337ZM184.945 13.3012C184.922 13.1737 184.917 13.0711 184.886 12.9767C184.737 12.5197 184.578 12.0645 184.43 11.6075C184.144 10.7201 183.862 9.82943 183.579 8.94039C183.42 8.4404 183.267 7.93877 183.11 7.43878C183.087 7.36759 183.058 7.29971 182.938 7.33282C182.913 7.39905 182.879 7.47851 182.855 7.55964C182.661 8.1871 182.473 8.81622 182.277 9.44203C182.015 10.2764 181.749 11.1092 181.479 11.9419C181.357 12.3161 181.223 12.687 181.101 13.0611C181.076 13.1373 181.081 13.225 181.073 13.3045C181.455 13.3674 184.521 13.3691 184.946 13.3028L184.945 13.3012Z" fill="#0C26B7"/>
<path d="M122.231 2.57012C122.649 2.49562 131.969 2.45754 133.559 2.5188C133.656 2.52211 133.754 2.54528 133.869 2.56018C133.887 2.67608 133.911 2.77375 133.916 2.87309C133.96 3.85816 133.932 5.38294 133.862 5.73889C133.791 5.75545 133.71 5.78525 133.627 5.79022C133.482 5.80015 133.338 5.79518 133.193 5.79518C131.209 5.79518 129.226 5.79518 127.241 5.79684C127.058 5.79684 126.863 5.75048 126.697 5.87134C126.639 6.24219 126.641 9.45566 126.697 9.81492C126.837 9.91923 127.001 9.88777 127.157 9.88777C127.953 9.89108 128.75 9.88942 129.546 9.88942C130.415 9.88942 131.284 9.88777 132.152 9.89108C132.308 9.89108 132.471 9.85962 132.622 9.95399C132.63 9.99538 132.651 10.0384 132.646 10.0765C132.519 11.0599 132.349 12.0367 132.177 13.0152C131.998 13.1062 131.823 13.0781 131.654 13.0781C130.205 13.0797 128.758 13.0781 127.31 13.0781C127.18 13.0781 127.048 13.0764 126.918 13.083C126.848 13.088 126.78 13.1112 126.696 13.1294C126.681 13.2238 126.657 13.3065 126.657 13.391C126.655 14.7651 126.655 16.1409 126.657 17.515C126.657 17.5994 126.671 17.6855 126.681 17.7931C126.792 17.8081 126.889 17.8312 126.985 17.8329C127.477 17.8362 127.969 17.8345 128.463 17.8345C130.23 17.8345 131.996 17.8345 133.763 17.8345H134.254C134.275 17.9289 134.303 17.9968 134.303 18.0647C134.306 19.015 134.304 19.9653 134.303 20.9156C134.303 20.9702 134.285 21.0265 134.277 21.0811C134.221 21.0993 134.182 21.1258 134.142 21.1258C130.231 21.1291 126.322 21.1308 122.412 21.1308C122.356 21.1308 122.303 21.1093 122.251 21.0993C122.231 21.0464 122.202 21.005 122.202 20.9652C122.199 14.8959 122.197 8.8282 122.197 2.75885C122.197 2.70256 122.218 2.64627 122.233 2.57012H122.231Z" fill="#0C26B7"/>
<path d="M173.7 4.50764C173.462 4.82386 171.695 6.63506 171.311 6.95624C171.233 6.88505 171.146 6.81551 171.073 6.73274C170.629 6.23606 170.121 5.82548 169.488 5.61688C168.408 5.26093 167.398 5.37847 166.522 6.16322C166.103 6.53903 165.837 7.02743 165.626 7.54562C165.301 8.33699 165.166 9.17306 165.072 10.0174C164.988 10.774 164.978 11.5339 164.991 12.2955C165.007 13.1895 165.105 14.0752 165.293 14.9494C165.416 15.5222 165.619 16.0702 165.921 16.5768C166.459 17.4741 167.23 17.9923 168.27 18.1082C169.028 18.1926 169.772 18.1148 170.511 17.9493C171.005 17.8383 171.493 17.7059 171.966 17.5188C172.071 17.4774 172.185 17.4592 172.291 17.4327C172.508 17.8648 173.19 20.0038 173.241 20.421C172.945 20.5866 172.616 20.6843 172.286 20.7803C171.393 21.0402 170.482 21.1959 169.554 21.2654C168.249 21.3631 166.948 21.3482 165.668 21.0386C164.569 20.772 163.568 20.3018 162.717 19.5337C161.936 18.8267 161.386 17.9625 160.988 16.9907C160.671 16.2159 160.466 15.4063 160.358 14.5802C160.267 13.9014 160.234 13.211 160.208 12.5256C160.172 11.6183 160.21 10.7111 160.336 9.81211C160.416 9.24921 160.533 8.68797 160.686 8.13998C160.962 7.14994 161.366 6.21454 161.959 5.36854C162.821 4.1401 163.948 3.2643 165.359 2.76266C166.871 2.2246 168.422 2.165 169.988 2.39347C171.336 2.59048 172.484 3.20305 173.431 4.19474C173.52 4.2891 173.6 4.39175 173.7 4.5093V4.50764Z" fill="#0C26B7"/>
<path d="M152.917 2.5675C153.329 2.49466 155.13 2.47314 156.939 2.51618C157.053 2.51949 157.165 2.5377 157.295 2.55095C157.31 2.65194 157.329 2.73472 157.334 2.8175C157.341 2.92014 157.336 3.02279 157.336 3.12378C157.336 8.92657 157.336 14.7294 157.336 20.5322C157.336 20.706 157.336 20.8798 157.336 21.0735C157.235 21.0967 157.154 21.1298 157.074 21.1298C155.757 21.1331 154.44 21.1315 153.123 21.1298C153.066 21.1298 153.009 21.1166 152.931 21.1083C152.912 21.0272 152.883 20.9477 152.876 20.8649C152.866 20.7491 152.873 20.6315 152.873 20.514C152.873 14.7261 152.873 8.93816 152.873 3.15027C152.873 2.96319 152.847 2.77114 152.917 2.56585V2.5675Z" fill="#0C26B7"/>
<path d="M79.4117 39.2109C79.4036 39.1645 79.3857 39.1082 79.3857 39.052C79.3857 34.4561 79.3857 29.8602 79.3857 25.2908C79.4962 25.1567 79.6196 25.1848 79.73 25.1832C80.8457 25.1699 81.9614 25.165 83.0771 25.1451C83.6715 25.1352 84.2642 25.1401 84.8586 25.1766C85.7843 25.2345 86.6596 25.4795 87.4797 25.9017C88.5759 26.4663 89.3668 27.3387 89.8962 28.4563C90.2113 29.1218 90.4241 29.8221 90.5312 30.5473C90.6579 31.4015 90.6985 32.2657 90.64 33.13C90.5881 33.8915 90.4728 34.6398 90.2292 35.3666C89.7517 36.7855 88.904 37.8815 87.5561 38.5619C86.874 38.9063 86.1562 39.1099 85.4043 39.2142C84.7417 39.3069 84.0775 39.3218 83.4084 39.3135C82.2342 39.297 81.0601 39.2937 79.8859 39.2821C79.73 39.2821 79.566 39.3218 79.4101 39.2076L79.4117 39.2109ZM82.775 36.8699C82.8432 36.8931 82.9098 36.9345 82.9764 36.9345C83.41 36.9345 83.8436 36.9345 84.2772 36.9146C84.477 36.9063 84.6832 36.8765 84.8749 36.8186C85.7063 36.5702 86.2666 36.0206 86.6028 35.216C86.9065 34.4875 86.9861 33.7177 87.0299 32.9445C87.0802 32.0803 87.0218 31.2194 86.8659 30.3685C86.7538 29.7609 86.5589 29.1781 86.2 28.6682C85.7989 28.097 85.2662 27.7261 84.5744 27.5904C84.0125 27.4795 83.4506 27.5142 82.8871 27.544C82.8497 27.5457 82.814 27.5838 82.7718 27.6086C82.762 27.6665 82.7425 27.7228 82.7425 27.7791C82.7425 30.7476 82.7425 33.716 82.7425 36.6861C82.7425 36.7424 82.762 36.8004 82.775 36.8682V36.8699Z" fill="#0C26B7"/>
<path d="M186.277 32.3087C186.285 32.8666 186.246 33.6398 186.07 34.4013C185.889 35.1894 185.64 35.9493 185.218 36.6446C184.739 37.4327 184.117 38.0668 183.323 38.5386C182.608 38.9624 181.834 39.1793 181.026 39.3051C179.922 39.4773 178.827 39.4111 177.744 39.1495C176.387 38.8217 175.31 38.085 174.584 36.8632C174.215 36.2423 173.968 35.5702 173.829 34.8616C173.65 33.9543 173.549 33.0371 173.587 32.1117C173.631 31.0107 173.772 29.9213 174.163 28.8849C174.581 27.7823 175.219 26.8386 176.184 26.1433C176.819 25.6864 177.519 25.3751 178.277 25.2079C178.944 25.0606 179.622 24.9844 180.307 25.0142C181.254 25.0539 182.179 25.1847 183.056 25.5854C183.971 26.0026 184.684 26.6383 185.216 27.4909C185.736 28.3237 185.994 29.2492 186.16 30.2077C186.269 30.8319 186.273 31.461 186.277 32.3103V32.3087ZM182.675 32.2871C182.658 31.9362 182.639 31.5719 182.623 31.2061C182.594 30.5438 182.481 29.8982 182.269 29.2723C182.092 28.7508 181.824 28.284 181.398 27.933C180.905 27.5257 180.317 27.3949 179.69 27.4181C178.972 27.4446 178.415 27.7591 178.014 28.3601C177.736 28.7773 177.551 29.2392 177.452 29.7293C177.13 31.3087 177.113 32.8914 177.416 34.4791C177.497 34.9013 177.639 35.297 177.827 35.6761C178.082 36.1893 178.472 36.5784 179.003 36.7986C179.396 36.9625 179.813 37.0072 180.237 36.989C181.012 36.9559 181.57 36.5801 181.973 35.9228C182.214 35.5304 182.34 35.0983 182.451 34.6596C182.644 33.8864 182.636 33.0934 182.675 32.2905V32.2871Z" fill="#0C26B7"/>
<path d="M145.443 31.9068C145.623 31.9863 145.724 32.0393 145.83 32.0757C146.283 32.2363 146.71 32.4432 147.104 32.728C148.137 33.4697 148.54 34.4895 148.425 35.7378C148.389 36.1153 148.322 36.4895 148.17 36.8437C147.842 37.6037 147.29 38.1368 146.568 38.5059C145.7 38.9513 144.766 39.1632 143.804 39.198C142.53 39.2427 141.253 39.2294 139.978 39.2377C139.66 39.2394 139.34 39.2327 139.022 39.2278C138.877 39.2261 138.734 39.2195 138.572 39.2145C138.548 39.1202 138.517 39.0407 138.509 38.9579C138.497 38.8569 138.505 38.7526 138.505 38.65C138.505 34.3455 138.505 30.0393 138.507 25.7348C138.507 25.5643 138.465 25.3838 138.575 25.2084C138.655 25.2001 138.739 25.1835 138.824 25.1835C140.23 25.1703 141.636 25.1537 143.043 25.1504C143.977 25.1488 144.893 25.2696 145.771 25.6156C146.474 25.8938 147.088 26.2928 147.517 26.9351C147.829 27.4053 148.015 27.9218 148.038 28.4947C148.058 28.9963 148.024 29.4864 147.811 29.9532C147.528 30.5757 147.072 31.0327 146.5 31.377C146.278 31.5111 146.034 31.6105 145.8 31.7247C145.711 31.7694 145.62 31.8141 145.445 31.9019L145.443 31.9068ZM141.911 33.2545C141.89 33.372 141.865 33.4432 141.865 33.5127C141.864 34.5938 141.862 35.6766 141.867 36.7577C141.867 36.8388 141.909 36.9199 141.932 37.0027C142.294 37.0706 142.642 37.0242 142.986 37.0391C143.325 37.054 143.652 36.9778 143.962 36.8603C144.342 36.7163 144.621 36.4464 144.761 36.0474C144.975 35.4398 144.948 34.8339 144.701 34.2495C144.532 33.8488 144.235 33.5541 143.821 33.3886C143.207 33.1419 142.582 33.1535 141.911 33.2528V33.2545ZM141.906 31.0674C142.331 31.1121 142.721 31.1006 143.109 31.0724C143.744 31.0261 144.222 30.6271 144.404 30.0128C144.532 29.5824 144.537 29.147 144.465 28.7099C144.422 28.4351 144.337 28.1718 144.16 27.945C143.848 27.546 143.416 27.402 142.942 27.3656C142.669 27.344 142.392 27.3589 142.117 27.3656C142.051 27.3656 141.984 27.4003 141.914 27.4185C141.895 27.493 141.869 27.5477 141.869 27.6023C141.865 28.6702 141.864 29.738 141.864 30.8042C141.864 30.8737 141.885 30.9449 141.904 31.0658L141.906 31.0674Z" fill="#0C26B7"/>
<path d="M199.39 39.1994C199.296 39.2176 199.228 39.2375 199.16 39.2424C198.507 39.2789 196.165 39.2507 195.827 39.2027C195.717 38.9709 195.59 38.7243 195.482 38.4726C195.129 37.6548 194.791 36.8303 194.432 36.0141C194.203 35.4926 193.963 34.976 193.703 34.4694C193.544 34.1582 193.341 33.8701 193.076 33.6334C192.73 33.3254 192.329 33.2128 191.857 33.2708C191.834 33.3685 191.802 33.4496 191.798 33.5324C191.79 33.7377 191.793 33.9429 191.793 34.1466C191.793 35.6697 191.793 37.1928 191.793 38.716C191.793 38.8749 191.819 39.0372 191.738 39.1994C191.683 39.2143 191.629 39.2391 191.574 39.2391C190.603 39.2408 189.63 39.2408 188.659 39.2391C188.604 39.2391 188.55 39.216 188.474 39.1978C188.463 39.1067 188.448 39.0239 188.443 38.9395C188.438 38.8517 188.441 38.764 188.441 38.6762C188.441 34.3701 188.441 30.0639 188.441 25.7578C188.441 25.5856 188.422 25.4084 188.482 25.2164C188.57 25.2048 188.653 25.1866 188.735 25.1866C190.069 25.1717 191.404 25.1535 192.737 25.1485C193.317 25.1469 193.896 25.1684 194.47 25.2727C195.102 25.3869 195.709 25.579 196.269 25.8985C196.893 26.2561 197.365 26.7611 197.65 27.4299C197.846 27.8902 197.943 28.3786 197.971 28.8802C198.004 29.4712 197.929 30.0507 197.723 30.607C197.503 31.198 197.127 31.6765 196.638 32.0606C196.422 32.2311 196.178 32.3635 195.946 32.5142C195.862 32.5688 195.777 32.6201 195.672 32.6864C195.733 32.7542 195.772 32.8172 195.829 32.8552C196.506 33.3205 196.977 33.9678 197.38 34.6681C197.921 35.6068 198.333 36.6068 198.759 37.6001C198.942 38.0306 199.119 38.4627 199.296 38.8948C199.334 38.9858 199.353 39.0835 199.389 39.2011L199.39 39.1994ZM191.844 27.3637C191.821 27.463 191.803 27.5044 191.802 27.5475C191.798 28.6732 191.798 29.7974 191.802 30.9232C191.802 30.9911 191.836 31.0573 191.86 31.145C192.321 31.1765 192.765 31.1914 193.206 31.0904C193.838 30.9447 194.203 30.5225 194.371 29.9182C194.494 29.4762 194.483 29.0176 194.366 28.5739C194.233 28.069 193.942 27.6849 193.439 27.4928C192.924 27.2975 192.398 27.314 191.845 27.3637H191.844Z" fill="#0C26B7"/>
<path d="M120.187 25.215C120.325 25.2018 120.407 25.1869 120.492 25.1869C121.841 25.1736 123.189 25.1538 124.539 25.1504C125.236 25.1488 125.931 25.1836 126.611 25.359C127.105 25.4865 127.587 25.6471 128.026 25.912C128.748 26.3491 129.266 26.9567 129.508 27.7878C129.752 28.6222 129.771 29.4616 129.554 30.3026C129.364 31.0393 128.935 31.6188 128.347 32.0807C128.177 32.2148 127.985 32.3241 127.801 32.44C127.68 32.5178 127.556 32.589 127.408 32.6767C127.467 32.7479 127.501 32.8125 127.555 32.8505C128.248 33.3406 128.734 34.0061 129.146 34.7395C129.656 35.6451 130.065 36.5971 130.462 37.5557C130.64 37.9878 130.829 38.4166 131.009 38.847C131.053 38.9513 131.084 39.0606 131.127 39.1897C131.049 39.2129 130.997 39.2361 130.946 39.2411C130.564 39.2725 127.862 39.246 127.571 39.208C127.532 39.1351 127.482 39.049 127.441 38.958C127.098 38.1666 126.764 37.3719 126.415 36.5839C126.113 35.9034 125.802 35.2263 125.479 34.5558C125.314 34.2131 125.094 33.9035 124.813 33.6419C124.469 33.324 124.068 33.2164 123.59 33.2744C123.566 33.3605 123.53 33.4383 123.524 33.521C123.512 33.6667 123.516 33.8141 123.516 33.9598C123.516 35.5276 123.516 37.0954 123.516 38.6616C123.516 38.8338 123.538 39.0109 123.461 39.198C123.394 39.2129 123.326 39.2411 123.258 39.2411C122.314 39.2444 121.372 39.2444 120.429 39.2411C120.372 39.2411 120.315 39.2229 120.239 39.2113C120.217 39.1318 120.183 39.0523 120.178 38.9695C120.167 38.8239 120.172 38.6765 120.172 38.5308C120.172 34.3124 120.172 30.0923 120.172 25.8739C120.172 25.6703 120.18 25.4667 120.187 25.215ZM123.568 31.142C124.123 31.185 124.653 31.2016 125.171 31.0211C125.239 30.9979 125.305 30.9648 125.365 30.9268C125.807 30.6453 126.065 30.2447 126.138 29.7198C126.181 29.4136 126.176 29.1089 126.138 28.8026C126.051 28.0974 125.65 27.6305 124.976 27.4285C124.592 27.3143 124.203 27.3358 123.813 27.3375C123.732 27.3375 123.651 27.3689 123.561 27.3888C123.545 27.508 123.522 27.6073 123.522 27.7067C123.519 28.7298 123.519 29.7529 123.522 30.7761C123.522 30.8887 123.551 31.0013 123.569 31.142H123.568Z" fill="#0C26B7"/>
<path d="M158.529 25.2307C159.002 25.1843 161.384 25.191 161.759 25.239C161.776 25.3102 161.803 25.3913 161.808 25.4741C161.818 25.6048 161.813 25.7373 161.813 25.8697C161.813 28.4773 161.81 31.0848 161.815 33.6923C161.815 34.386 161.74 35.0648 161.548 35.732C161.118 37.2369 160.197 38.3031 158.753 38.8776C157.529 39.3643 156.254 39.4885 154.948 39.3362C154.312 39.2617 153.688 39.1408 153.095 38.8809C152.042 38.4174 151.264 37.6723 150.775 36.6177C150.393 35.7933 150.218 34.9241 150.216 34.0201C150.211 31.2371 150.213 28.4541 150.216 25.6694C150.216 25.527 150.185 25.3764 150.262 25.2588C150.288 25.2373 150.297 25.2241 150.31 25.2191C150.323 25.2125 150.338 25.2108 150.353 25.2108C151.324 25.2075 152.296 25.2042 153.268 25.2009C153.324 25.2009 153.381 25.2108 153.462 25.2191C153.48 25.3002 153.51 25.3797 153.514 25.4608C153.524 25.5916 153.518 25.724 153.518 25.8565C153.518 28.3465 153.518 30.8365 153.518 33.3281C153.518 33.9456 153.573 34.5532 153.756 35.1492C154.088 36.2204 154.864 36.7005 155.842 36.785C156.085 36.8065 156.337 36.7965 156.577 36.7535C157.397 36.6078 157.914 36.0913 158.188 35.3181C158.334 34.9042 158.424 34.4721 158.432 34.0284C158.442 33.4721 158.463 32.9159 158.463 32.3596C158.466 30.1776 158.463 27.9938 158.466 25.8118C158.466 25.6247 158.438 25.4327 158.524 25.2307H158.529Z" fill="#0C26B7"/>
<path d="M209.229 26.3129C209.218 26.3774 209.223 26.4403 209.197 26.4883C208.841 27.1721 208.482 27.8542 208.126 28.533C207.927 28.5247 207.811 28.3989 207.673 28.3293C207.53 28.2582 207.391 28.182 207.249 28.1075C206.722 27.8277 206.173 27.6042 205.585 27.4883C205.163 27.4055 204.75 27.4221 204.344 27.5794C203.811 27.7847 203.578 28.2482 203.708 28.8078C203.795 29.182 204.003 29.4684 204.282 29.7151C204.591 29.9882 204.947 30.1869 205.312 30.3624C205.809 30.6008 206.316 30.8177 206.813 31.0544C207.326 31.2978 207.81 31.5875 208.243 31.9617C208.916 32.5428 209.283 33.2861 209.377 34.1636C209.481 35.1288 209.366 36.0609 208.914 36.9367C208.58 37.5873 208.112 38.1122 207.514 38.526C206.905 38.9499 206.223 39.1767 205.502 39.3075C204.734 39.4465 203.974 39.3969 203.211 39.276C202.066 39.0939 201.007 38.6734 199.99 38.1237C199.878 38.0625 199.779 37.9781 199.682 37.9085C199.761 37.5459 200.521 35.849 200.749 35.5228C200.981 35.6553 201.22 35.7877 201.452 35.9268C202.015 36.2629 202.608 36.5294 203.224 36.7546C203.688 36.9251 204.17 36.9334 204.64 36.8539C205.156 36.7662 205.538 36.4665 205.695 35.9284C205.77 35.6718 205.801 35.4119 205.773 35.147C205.728 34.7 205.513 34.3507 205.155 34.0825C204.766 33.7911 204.326 33.6057 203.883 33.4202C203.186 33.1305 202.506 32.8077 201.876 32.3839C201.512 32.1388 201.185 31.8508 200.895 31.523C200.33 30.8839 200.084 30.1124 200.034 29.2747C199.997 28.6224 200.097 27.9916 200.377 27.3956C200.744 26.6125 201.325 26.0397 202.069 25.6258C202.969 25.1258 203.94 24.9453 204.96 24.9834C206.239 25.0314 207.449 25.3477 208.599 25.9089C208.82 26.0165 209.029 26.1423 209.226 26.3095L209.229 26.3129Z" fill="#0C26B7"/>
<path d="M97.9639 37.8983C98.1052 37.4397 98.8392 35.8388 99.0455 35.5424C99.1413 35.5888 99.2452 35.6302 99.341 35.6881C100.036 36.1153 100.759 36.4812 101.527 36.7576C101.995 36.9248 102.474 36.9331 102.945 36.857C103.464 36.7725 103.843 36.458 103.999 35.9282C104.047 35.761 104.083 35.5838 104.088 35.4116C104.107 34.8802 103.913 34.4448 103.49 34.1137C103.094 33.8041 102.641 33.6137 102.185 33.425C101.473 33.1286 100.778 32.8008 100.14 32.3637C99.7892 32.1253 99.4693 31.8488 99.1949 31.5244C98.7726 31.0244 98.4917 30.4549 98.4007 29.7959C98.3 29.0758 98.3049 28.3622 98.5631 27.6735C98.9074 26.7579 99.5343 26.0924 100.379 25.6255C101.282 25.1272 102.251 24.9467 103.273 24.9881C104.567 25.0395 105.792 25.3623 106.953 25.9368C107.161 26.0394 107.355 26.1603 107.528 26.3093C107.424 26.6719 106.659 28.1519 106.371 28.5476C106.084 28.3937 105.793 28.2331 105.499 28.0808C104.981 27.8142 104.445 27.594 103.87 27.4847C103.448 27.4053 103.037 27.4285 102.63 27.5841C102.115 27.7794 101.918 28.2463 101.985 28.6966C102.047 29.1105 102.263 29.4284 102.565 29.6983C102.883 29.983 103.25 30.1866 103.632 30.3688C104.13 30.6055 104.635 30.8257 105.132 31.0641C105.764 31.3671 106.355 31.7296 106.839 32.2528C107.26 32.7064 107.511 33.2412 107.628 33.8405C107.846 34.958 107.696 36.0275 107.164 37.0341C106.733 37.8487 106.089 38.4529 105.272 38.847C104.239 39.3453 103.143 39.4877 102.006 39.3453C101.298 39.2559 100.606 39.1102 99.9322 38.8701C99.3004 38.6466 98.7028 38.3536 98.1214 38.0208C98.0727 37.9927 98.0305 37.9513 97.9655 37.9L97.9639 37.8983Z" fill="#0C26B7"/>
<path d="M111.649 27.7101C111.498 27.7002 111.357 27.6853 111.216 27.6853C110.418 27.6836 109.621 27.6853 108.823 27.682C108.682 27.682 108.531 27.7201 108.408 27.6108C108.344 27.2151 108.349 25.5943 108.419 25.245C108.546 25.1655 108.695 25.2019 108.835 25.2003C109.907 25.197 110.98 25.2003 112.052 25.2003C114.097 25.2003 116.14 25.2003 118.184 25.2019C118.34 25.2019 118.502 25.1655 118.65 25.245C118.671 25.5926 118.439 27.0297 118.257 27.6456C118.161 27.6572 118.051 27.682 117.941 27.682C117.158 27.6853 116.375 27.682 115.592 27.6853C115.435 27.6853 115.272 27.6555 115.103 27.7383C115.089 27.7946 115.058 27.8624 115.055 27.932C115.045 28.0926 115.048 28.2532 115.048 28.4154C115.048 31.811 115.048 35.2066 115.048 38.6038C115.048 38.7926 115.04 38.9796 115.035 39.1833C114.946 39.2081 114.879 39.2412 114.811 39.2412C113.84 39.2445 112.869 39.2412 111.898 39.2412C111.855 39.2412 111.813 39.223 111.748 39.2065C111.73 39.132 111.7 39.0525 111.695 38.9697C111.685 38.8389 111.691 38.7065 111.691 38.574C111.691 35.1486 111.691 31.7232 111.691 28.2979C111.691 28.1108 111.713 27.922 111.649 27.7118V27.7101Z" fill="#0C26B7"/>
<path d="M169.597 39.1978C169.222 39.259 166.82 39.2656 166.378 39.2093C166.359 39.1381 166.321 39.0587 166.315 38.9776C166.303 38.817 166.308 38.6564 166.308 38.4941C166.308 35.1134 166.308 31.7311 166.307 28.3504C166.307 28.1484 166.341 27.9415 166.26 27.7527C166.136 27.6534 166.001 27.6849 165.875 27.6849C165.063 27.6816 164.251 27.6849 163.44 27.6816C163.299 27.6816 163.158 27.6683 162.997 27.66C162.917 27.3769 162.961 27.1153 162.953 26.8571C162.947 26.5938 162.953 26.3306 162.953 26.0674C162.953 25.8041 162.953 25.5426 162.953 25.2611C163.055 25.2363 163.133 25.2098 163.215 25.2015C163.315 25.1916 163.418 25.1982 163.518 25.1982C166.591 25.1982 169.663 25.1982 172.738 25.1982C172.908 25.1982 173.084 25.1734 173.261 25.2363C173.264 25.3207 173.282 25.3935 173.269 25.4631C173.126 26.1783 173.058 26.9067 172.89 27.5922C172.756 27.713 172.619 27.6816 172.492 27.6816C171.71 27.6849 170.927 27.6816 170.144 27.6849C170.001 27.6849 169.853 27.6567 169.714 27.7378C169.618 27.9266 169.655 28.1352 169.655 28.3372C169.652 31.1765 169.654 34.0158 169.654 36.8568C169.654 37.471 169.654 38.0869 169.654 38.7011C169.654 38.86 169.67 39.0223 169.599 39.1978H169.597Z" fill="#0C26B7"/>
<path d="M135.862 25.2324C135.88 25.3119 135.904 25.3682 135.904 25.4228C135.904 29.9757 135.901 34.5285 135.894 39.0813C135.894 39.1211 135.862 39.1608 135.832 39.2287C134.772 39.2651 133.702 39.2386 132.619 39.2452C132.594 39.1343 132.565 39.0532 132.56 38.9704C132.55 38.8396 132.557 38.7072 132.557 38.5747C132.557 34.3282 132.557 30.0833 132.557 25.8367V25.2556C132.649 25.2324 132.716 25.2026 132.783 25.2026C133.754 25.1993 134.725 25.2026 135.696 25.2026C135.738 25.2026 135.78 25.2175 135.862 25.2324Z" fill="#0C26B7"/>
<path d="M92.8015 39.2039C92.7235 38.7238 92.6894 28.499 92.7527 25.6001C92.756 25.4858 92.7722 25.3716 92.7852 25.2441C93.1587 25.1597 93.5193 25.2126 93.8765 25.2027C94.2241 25.1928 94.5716 25.2011 94.9208 25.2011H96.0202C96.0478 25.3037 96.0819 25.3832 96.0901 25.466C96.1014 25.5818 96.0965 25.6994 96.0965 25.8169C96.0965 30.0767 96.0965 34.3382 96.0965 38.598C96.0965 38.7867 96.0868 38.9755 96.0819 39.1741C95.9926 39.2023 95.9277 39.2404 95.8611 39.2404C94.9045 39.2453 93.948 39.2437 92.9915 39.242C92.9363 39.242 92.881 39.2205 92.8031 39.2039H92.8015Z" fill="#0C26B7"/>
</svg>
